<?xml version="1.0" encoding="UTF-8"?>
<svg version="1.1" xmlns="http://www.w3.org/2000/svg" width="512" height="512">
<path d="M0 0 C0.96401509 -0.00657338 0.96401509 -0.00657338 1.94750524 -0.01327956 C4.1107787 -0.02668237 6.27401142 -0.03284972 8.43731689 -0.03897095 C9.98450912 -0.04687079 11.53169951 -0.05513967 13.07888794 -0.06375122 C18.16872392 -0.08998631 23.25856819 -0.10528092 28.34844971 -0.11953735 C30.09978491 -0.12489654 31.85112005 -0.13027404 33.60245514 -0.13566971 C40.88725954 -0.15730114 48.17206171 -0.17603801 55.45689011 -0.1872921 C65.90077334 -0.20353188 76.34428455 -0.23670714 86.78802752 -0.29369295 C94.12907759 -0.33238459 101.47002813 -0.35192389 108.81117749 -0.35721266 C113.19674367 -0.36086738 117.5819132 -0.37290093 121.96736908 -0.4053154 C126.09445875 -0.43538239 130.2209115 -0.44171304 134.34808731 -0.42993164 C135.86139677 -0.42971078 137.37473567 -0.4380261 138.88794327 -0.45558548 C151.74245499 -0.59660911 151.74245499 -0.59660911 155.62820435 2.39199829 C157.67503963 4.99310038 158.83308506 6.77258863 159.7288208 9.92782593 C160.01020905 10.87809662 160.29159729 11.82836731 160.58151245 12.80743408 C160.86811737 13.85247101 161.15472229 14.89750793 161.45001221 15.97421265 C161.7769809 17.09844635 162.10394958 18.22268005 162.44082642 19.38098145 C163.17356927 21.90723913 163.89830031 24.43458112 164.61248779 26.96603394 C165.87774014 31.44081206 167.18601092 35.90255888 168.49786377 40.36386108 C171.24001957 49.70161739 173.95417539 59.04735881 176.66308594 68.39480591 C178.68416686 75.36768857 180.70838124 82.33966167 182.73336792 89.3114109 C183.45705172 91.80401639 184.17975416 94.296905 184.90240479 96.78981018 C187.58659695 106.03957622 190.28777151 115.28354424 193.18185425 124.47039795 C194.86000276 129.91171633 196.40966655 135.53615825 194.80157471 141.15390015 C192.29056852 144.719207 189.02485115 146.34642973 184.80157471 147.15390015 C181.8248422 147.25064097 178.87169143 147.29302379 175.89498901 147.28761292 C174.98517253 147.28987847 174.07535605 147.29214403 173.13796937 147.29447824 C170.08262838 147.30081947 167.02733172 147.29998879 163.97198486 147.29916382 C161.78411298 147.30215522 159.59624163 147.30555771 157.40837097 147.30934143 C151.46004475 147.31818734 145.51173291 147.32051979 139.56340075 147.32115722 C134.60056352 147.32210596 129.63772967 147.32578385 124.67489374 147.32932931 C113.63672193 147.33701055 102.59855685 147.33999773 91.56038256 147.33932396 C90.8981205 147.339284 90.23585844 147.33924405 89.55352783 147.33920288 C88.89045661 147.339162 88.22738538 147.33912112 87.54422109 147.339079 C76.79791349 147.33867254 66.05164093 147.34824228 55.30534346 147.36234125 C44.26948393 147.3767058 33.23364233 147.38342825 22.19777334 147.38274747 C16.00262788 147.38249227 9.80752207 147.38535573 3.6123848 147.39592552 C-2.21357873 147.40559384 -8.0394646 147.40569436 -13.86543083 147.39840889 C-16.00439123 147.39736148 -18.14335643 147.39973514 -20.28230858 147.40576935 C-23.20092163 147.41347013 -26.1192652 147.40885706 -29.03787231 147.40113831 C-29.88534826 147.40628187 -30.7328242 147.41142543 -31.60598123 147.41672486 C-37.19255479 147.38404996 -41.69735093 146.66770831 -46.57342529 143.71640015 C-49.53205344 139.05087115 -48.86507291 133.52936801 -47.8178978 128.22715759 C-46.53213739 122.7860406 -44.92110453 117.43520432 -43.33514404 112.07577515 C-42.82209798 110.30200454 -42.31039339 108.52784545 -41.79994202 106.75332642 C-40.45079035 102.07597296 -39.08447899 97.40381049 -37.71411133 92.7326355 C-36.0980264 87.21276873 -34.50199466 81.68708207 -32.90297127 76.16225433 C-31.5833608 71.60479995 -30.25994485 67.04853312 -28.92739868 62.49484253 C-26.24867553 53.3278713 -23.63126666 44.14938077 -21.12664795 34.93319702 C-20.63163736 33.12546313 -20.13642709 31.31778391 -19.64100647 29.51016235 C-18.71173878 26.11852511 -17.80231563 22.72240083 -16.90367126 19.32254028 C-16.48554411 17.79247724 -16.06666642 16.26261903 -15.64691162 14.73300171 C-15.47242052 14.04990685 -15.29792942 13.36681198 -15.11815071 12.66301727 C-13.72784296 7.69642073 -11.6941286 4.81482632 -8.19842529 1.15390015 C-5.41070851 -0.23995825 -3.12030765 0.01504729 0 0 Z " fill="#F9C800" transform="translate(317.19842529296875,339.8460998535156)"/>
<path d="M0 0 C0.96401509 -0.00657338 0.96401509 -0.00657338 1.94750524 -0.01327956 C4.1107787 -0.02668237 6.27401142 -0.03284972 8.43731689 -0.03897095 C9.98450912 -0.04687079 11.53169951 -0.05513967 13.07888794 -0.06375122 C18.16872392 -0.08998631 23.25856819 -0.10528092 28.34844971 -0.11953735 C30.09978491 -0.12489654 31.85112005 -0.13027404 33.60245514 -0.13566971 C40.88725954 -0.15730114 48.17206171 -0.17603801 55.45689011 -0.1872921 C65.90077334 -0.20353188 76.34428455 -0.23670714 86.78802752 -0.29369295 C94.12907759 -0.33238459 101.47002813 -0.35192389 108.81117749 -0.35721266 C113.19674367 -0.36086738 117.5819132 -0.37290093 121.96736908 -0.4053154 C126.09445875 -0.43538239 130.2209115 -0.44171304 134.34808731 -0.42993164 C135.86139677 -0.42971078 137.37473567 -0.4380261 138.88794327 -0.45558548 C151.74244743 -0.59660903 151.74244743 -0.59660903 155.62820435 2.39186096 C157.67557842 4.9937771 158.8332212 6.77371475 159.7288208 9.93002319 C160.01020905 10.88061111 160.29159729 11.83119904 160.58151245 12.81059265 C160.86811737 13.85587631 161.15472229 14.90115997 161.45001221 15.9781189 C161.7769809 17.10255905 162.10394958 18.22699921 162.44082642 19.38551331 C163.17347627 21.9113557 163.8981583 24.43829525 164.61248779 26.9692688 C165.87676714 31.43790406 167.18539999 35.89306562 168.49786377 40.3477478 C171.24123187 49.6710914 173.9547353 59.00295057 176.66308594 68.33651733 C178.18793833 73.58896276 179.71651926 78.8403247 181.24441147 84.09188652 C182.46637567 88.29353784 183.6861172 92.49580988 184.90075684 96.69958496 C185.36018144 98.28934516 185.81963311 99.87909755 186.27911377 101.46884155 C186.60824957 102.60775187 186.60824957 102.60775187 186.94403458 103.76967049 C188.21970396 108.17438363 189.52141685 112.57017327 190.84747314 116.96005249 C191.13601166 117.92803268 191.42455017 118.89601288 191.72183228 119.89332581 C192.22045762 121.56278443 192.7279118 123.22965532 193.24777222 124.8926239 C194.74578987 129.95366488 195.44800988 134.87572435 194.80157471 140.15390015 C192.96778014 143.46883647 191.69203101 144.76926455 188.22483063 146.26693344 C183.95077643 147.37434225 180.04975544 147.43104318 175.65447998 147.40786743 C174.28719198 147.4125474 174.28719198 147.4125474 172.89228201 147.41732192 C169.84309993 147.42528839 166.79411759 147.41898349 163.74493408 147.41268921 C161.5567666 147.41539967 159.36860002 147.41896091 157.18043518 147.42330933 C151.24047166 147.43242904 145.3005776 147.42889076 139.36061287 147.42255116 C133.14541562 147.41748903 126.93022434 147.4221832 120.71502686 147.42532349 C109.60893015 147.42919562 98.50286077 147.42297875 87.39676946 147.41280481 C77.33133082 147.40386958 67.2659383 147.40542171 57.20050049 147.41464233 C45.50580368 147.42535049 33.8111338 147.42932666 22.11643267 147.42341781 C15.9280286 147.42029912 9.7396563 147.41988603 3.55125427 147.42649078 C-2.26653521 147.43226622 -8.08423753 147.42826362 -13.90201759 147.41670227 C-16.03775195 147.41405676 -18.17349364 147.41481891 -20.30922508 147.4192276 C-23.22335943 147.42468869 -26.13721406 147.41784191 -29.05133057 147.40786743 C-29.89744227 147.41232888 -30.74355397 147.41679032 -31.61530542 147.42138696 C-37.19679014 147.38430594 -41.70201183 146.66488724 -46.57342529 143.71640015 C-49.83768904 138.56890731 -48.64176283 132.25039699 -47.42733765 126.50750732 C-46.34258202 122.25753799 -45.09204143 118.0570611 -43.84295654 113.8531189 C-43.3835148 112.26665831 -42.92542626 110.67980529 -42.46859741 109.09259033 C-41.25041482 104.87310825 -40.01487849 100.65890551 -38.77540207 96.44563675 C-37.49755864 92.09258544 -36.2341407 87.73535652 -34.97015381 83.37826538 C-33.45899189 78.17076568 -31.94716268 72.96347749 -30.42869568 67.75810242 C-27.54858972 57.87621683 -24.73443753 47.98072827 -22.01873779 38.05233765 C-21.71938828 36.9637294 -21.42003876 35.87512115 -21.11161804 34.75352478 C-19.47927297 28.81605497 -19.47927297 28.81605497 -17.8765564 22.87054443 C-17.1833516 20.27495179 -16.47214826 17.68492773 -15.75701904 15.0953064 C-15.56830231 14.36455902 -15.37958557 13.63381165 -15.18515015 12.88092041 C-13.76374006 7.82407501 -11.77021887 4.87214539 -8.19842529 1.15390015 C-5.41070851 -0.23995825 -3.12030765 0.01504729 0 0 Z " fill="#F9C800" transform="translate(48.19842529296875,339.8460998535156)"/>
<path d="M0 0 C0.65240382 -0.00523668 1.30480765 -0.01047336 1.97698128 -0.01586872 C4.16718048 -0.03089299 6.35714656 -0.03157439 8.5473938 -0.03224182 C10.11606237 -0.03986168 11.68472721 -0.04828888 13.25338745 -0.0574646 C17.5178795 -0.0794334 21.78229985 -0.08821166 26.0468421 -0.09329104 C28.71047793 -0.09693174 31.37409489 -0.10317029 34.03772354 -0.11029243 C43.32839027 -0.134795 52.6190011 -0.14784061 61.90969849 -0.15138245 C70.57295154 -0.15501858 79.23585049 -0.18491732 87.89899528 -0.22678703 C95.33432892 -0.26146417 102.76954506 -0.27693044 110.20495903 -0.27762848 C114.64690777 -0.27842217 119.08849591 -0.28720255 123.53036118 -0.31562614 C127.70837094 -0.34176298 131.88572005 -0.34403697 136.06377411 -0.3279705 C137.59684563 -0.3261525 139.12995476 -0.33287857 140.66294479 -0.34878922 C142.75720055 -0.36919932 144.84913365 -0.35873268 146.94335938 -0.34057617 C148.11474897 -0.3425875 149.28613857 -0.34459883 150.49302483 -0.3466711 C154.54364324 0.46305877 156.01528001 2.12414793 158.59866333 5.27415466 C159.84481812 8.06668091 159.84481812 8.06668091 160.73245239 11.16355896 C161.07820312 12.33942062 161.42395386 13.51528229 161.78018188 14.72677612 C162.14181628 16.01723416 162.50317642 17.30776907 162.86428833 18.59837341 C163.25805681 19.9587857 163.65331674 21.31876704 164.04995728 22.67834473 C165.11410081 26.34059868 166.15839565 30.00823804 167.1988678 33.67727661 C168.28629899 37.50017755 169.39074393 41.31815077 170.49417114 45.13645935 C171.85066542 49.83389167 173.20553573 54.53176218 174.55245972 59.23194885 C177.33971804 68.95362005 180.17935833 78.65791915 183.07767487 88.34705544 C183.68552226 90.38001358 184.29178178 92.41343782 184.89743042 94.447052 C185.09279514 95.10298875 185.28815987 95.7589255 185.48944473 96.43473911 C185.87667067 97.73498388 186.26386542 99.03523794 186.65102768 100.33550167 C187.58756021 103.47863437 188.52836139 106.62039671 189.47476196 109.76057434 C190.52087519 113.23616558 191.55343011 116.71551949 192.58303833 120.19602966 C192.89140625 121.2076265 193.19977417 122.21922333 193.51748657 123.26147461 C197.24179377 135.96907931 197.24179377 135.96907931 194.57522583 141.33274841 C189.77287666 146.23225494 189.77287666 146.23225494 184.75892162 146.41116905 C183.04668801 146.42195505 181.33441393 146.42709672 179.62214661 146.42805481 C178.20992418 146.43462819 178.20992418 146.43462819 176.76917201 146.44133437 C173.59473942 146.4547555 170.42033461 146.46090863 167.24588013 146.46702576 C164.97786329 146.47492403 162.70984773 146.48319281 160.4418335 146.49180603 C152.97719529 146.51805504 145.51255138 146.53333522 138.04788208 146.54759216 C135.48177397 146.55295041 132.9156659 146.55832791 130.34955788 146.56372452 C119.67887012 146.58535628 109.00818525 146.60424617 98.3374815 146.61534691 C95.56785261 146.61827667 92.79822377 146.62123833 90.02859497 146.62425232 C88.99601079 146.6253714 88.99601079 146.6253714 87.94256631 146.62651308 C76.78800197 146.63917005 65.6335969 146.67239735 54.47910704 146.71405415 C43.03085215 146.75645812 31.58271811 146.77963233 20.13437778 146.78526747 C13.70495064 146.78892792 7.2757935 146.80102324 0.84644127 146.83337021 C-5.20038179 146.86335629 -11.24677012 146.86979631 -17.29365158 146.85798645 C-19.51528604 146.85776493 -21.73694013 146.8661342 -23.95850563 146.88364029 C-26.98748872 146.90621323 -30.0148796 146.89809167 -33.04386902 146.88215637 C-33.92674963 146.89603846 -34.80963024 146.90992055 -35.71926481 146.9242233 C-40.14239756 146.86673389 -41.85200235 146.71273636 -45.4236784 143.86115456 C-48.57365727 139.7406272 -48.62450693 137.46887711 -48.40133667 132.27415466 C-47.74299622 129.09358215 -47.74299622 129.09358215 -46.80343628 125.80296326 C-46.45091293 124.55127853 -46.09838959 123.29959381 -45.73518372 122.00997925 C-45.34150161 120.64747286 -44.94766237 119.28501187 -44.55368042 117.92259216 C-44.14515748 116.48439211 -43.73746707 115.04595536 -43.33055115 113.6072998 C-42.23709029 109.74997418 -41.1325194 105.89591589 -40.02545166 102.04247665 C-38.87813078 98.04328013 -37.73964267 94.04157176 -36.60055542 90.0400238 C-35.21551193 85.17612729 -33.82958749 80.31249135 -32.43914795 75.45013428 C-29.5409246 65.31072791 -26.68845355 55.1597631 -23.87399292 44.99681091 C-22.86646217 41.37410619 -21.85815114 37.75161955 -20.84960938 34.12919617 C-20.22076116 31.86284932 -19.59529602 29.59556086 -18.97332764 27.32731628 C-18.11529994 24.20133027 -17.24422725 21.07926027 -16.37008667 17.95774841 C-16.00410118 16.60327354 -16.00410118 16.60327354 -15.63072205 15.22143555 C-13.10443148 6.29962536 -10.22674114 0.0406271 0 0 Z " fill="#F9C800" transform="translate(182.40133666992188,180.72584533691406)"/>
<path d="M0 0 C3.19845671 1.38972246 5.06418136 2.97459224 7.375 5.5625 C21.02832583 19.52036098 40.72818766 26.9110106 60 28 C60.8765625 28.05285156 61.753125 28.10570313 62.65625 28.16015625 C79.54729414 28.68232563 95.69181557 24.02404689 109.66015625 14.55078125 C111.72488063 13.18234122 113.76068348 12.04984123 116 11 C116.8125 12.68359375 116.8125 12.68359375 117 15 C114.9375 17.41015625 114.9375 17.41015625 112 20.0625 C98.06488626 33.2133482 89.78856664 52.84440198 89 72 C88.92265625 73.42119141 88.92265625 73.42119141 88.84375 74.87109375 C88.30953831 93.05654999 93.41793404 110.69930137 104.6796875 125.15625 C106 127 106 127 106 129 C104.68 129.33 103.36 129.66 102 130 C101.57332031 129.45472656 101.14664063 128.90945312 100.70703125 128.34765625 C88.88357518 114.08637419 70.61418542 104.40607454 52.18603516 102.19921875 C31.41957774 100.30672051 9.98660156 102.73301541 -6.8125 116.265625 C-9 118 -9 118 -11.3125 117.75 C-12.1478125 117.37875 -12.1478125 117.37875 -13 117 C-11.48061678 113.31841759 -9.2877765 111.23630257 -6.375 108.5625 C8.96933638 93.46172451 15.17911086 72.65541313 15.4375 51.5625 C15.35018418 34.25213904 10.13402328 19.52763184 0.2578125 5.3125 C-0.15726562 4.549375 -0.57234375 3.78625 -1 3 C-0.67 2.01 -0.34 1.02 0 0 Z " fill="#F8C800" transform="translate(348,36)"/>
<path d="M0 0 C0.96401509 -0.00657338 0.96401509 -0.00657338 1.94750524 -0.01327956 C4.1107787 -0.02668237 6.27401142 -0.03284972 8.43731689 -0.03897095 C9.98450912 -0.04687079 11.53169951 -0.05513967 13.07888794 -0.06375122 C18.16872392 -0.08998631 23.25856819 -0.10528092 28.34844971 -0.11953735 C30.09978491 -0.12489654 31.85112005 -0.13027404 33.60245514 -0.13566971 C40.88725954 -0.15730114 48.17206171 -0.17603801 55.45689011 -0.1872921 C65.90077334 -0.20353188 76.34428455 -0.23670714 86.78802752 -0.29369295 C94.12907759 -0.33238459 101.47002813 -0.35192389 108.81117749 -0.35721266 C113.19674367 -0.36086738 117.5819132 -0.37290093 121.96736908 -0.4053154 C126.09445875 -0.43538239 130.2209115 -0.44171304 134.34808731 -0.42993164 C135.86139677 -0.42971078 137.37473567 -0.4380261 138.88794327 -0.45558548 C151.73560234 -0.59653393 151.73560234 -0.59653393 155.68615723 2.31536865 C158.01265304 5.43713147 158.30784849 7.36477816 158.80157471 11.15390015 C158.03827756 11.15536671 157.27498041 11.15683327 156.48855305 11.15834427 C137.91861386 11.1953907 119.34886312 11.25437659 100.77907276 11.33780289 C91.79885876 11.37761777 82.8187327 11.40999779 73.83843994 11.42489624 C66.01150174 11.4379001 58.18475684 11.46483224 50.3579275 11.50851321 C46.21336706 11.53115668 42.06904528 11.54680911 37.9244175 11.545784 C34.02303279 11.54503907 30.12217626 11.56292167 26.22092819 11.59506798 C24.78948945 11.60358404 23.35799158 11.6053053 21.92653847 11.59970284 C19.97082284 11.59306829 18.01507128 11.61333453 16.0594635 11.63491821 C14.96529523 11.63860538 13.87112696 11.64229256 12.74380207 11.64609146 C9.10529845 12.27407275 7.43306585 13.61459468 4.80157471 16.15390015 C3.65825593 18.23956689 3.65825593 18.23956689 3.09844971 20.5743103 C-8.44413214 62.49996982 -20.3260796 104.31801532 -32.19842529 146.15390015 C39.41157471 146.15390015 111.02157471 146.15390015 184.80157471 146.15390015 C184.80157471 146.48390015 184.80157471 146.81390015 184.80157471 147.15390015 C155.82961769 147.20059936 126.8576663 147.2358788 97.88567924 147.25752449 C95.20888135 147.25956421 92.53208348 147.26164685 89.85528564 147.26376343 C88.8572858 147.26455036 88.8572858 147.26455036 87.83912434 147.26535319 C77.06670005 147.27405536 66.29429712 147.28982431 55.5218855 147.30820574 C44.4680763 147.32690999 33.41427889 147.33786829 22.36045468 147.34207714 C16.15183042 147.34468678 9.94325459 147.35082975 3.73464584 147.36536026 C-2.10767327 147.37892289 -7.94992395 147.38312543 -13.79225731 147.38011551 C-15.93766718 147.38066626 -18.08307931 147.38465152 -20.22847557 147.3923111 C-23.1560533 147.4022516 -26.08337217 147.39987219 -29.01095581 147.39440918 C-30.28626244 147.4031477 -30.28626244 147.4031477 -31.58733284 147.41206276 C-37.18266413 147.38381385 -41.68935603 146.67254733 -46.57342529 143.71640015 C-49.83768904 138.56890731 -48.64176283 132.25039699 -47.42733765 126.50750732 C-46.34258202 122.25753799 -45.09204143 118.0570611 -43.84295654 113.8531189 C-43.3835148 112.26665831 -42.92542626 110.67980529 -42.46859741 109.09259033 C-41.25041482 104.87310825 -40.01487849 100.65890551 -38.77540207 96.44563675 C-37.49755864 92.09258544 -36.2341407 87.73535652 -34.97015381 83.37826538 C-33.45899189 78.17076568 -31.94716268 72.96347749 -30.42869568 67.75810242 C-27.54858972 57.87621683 -24.73443753 47.98072827 -22.01873779 38.05233765 C-21.71938828 36.9637294 -21.42003876 35.87512115 -21.11161804 34.75352478 C-19.47927297 28.81605497 -19.47927297 28.81605497 -17.8765564 22.87054443 C-17.1833516 20.27495179 -16.47214826 17.68492773 -15.75701904 15.0953064 C-15.56830231 14.36455902 -15.37958557 13.63381165 -15.18515015 12.88092041 C-13.76374006 7.82407501 -11.77021887 4.87214539 -8.19842529 1.15390015 C-5.41070851 -0.23995825 -3.12030765 0.01504729 0 0 Z " fill="#E5BC00" transform="translate(48.19842529296875,339.8460998535156)"/>
<path d="M0 0 C0.96401509 -0.00657338 0.96401509 -0.00657338 1.94750524 -0.01327956 C4.1107787 -0.02668237 6.27401142 -0.03284972 8.43731689 -0.03897095 C9.98450912 -0.04687079 11.53169951 -0.05513967 13.07888794 -0.06375122 C18.16872392 -0.08998631 23.25856819 -0.10528092 28.34844971 -0.11953735 C30.09978491 -0.12489654 31.85112005 -0.13027404 33.60245514 -0.13566971 C40.88725954 -0.15730114 48.17206171 -0.17603801 55.45689011 -0.1872921 C65.90077334 -0.20353188 76.34428455 -0.23670714 86.78802752 -0.29369295 C94.12907759 -0.33238459 101.47002813 -0.35192389 108.81117749 -0.35721266 C113.19674367 -0.36086738 117.5819132 -0.37290093 121.96736908 -0.4053154 C126.09445875 -0.43538239 130.2209115 -0.44171304 134.34808731 -0.42993164 C135.86139677 -0.42971078 137.37473567 -0.4380261 138.88794327 -0.45558548 C151.73560234 -0.59653393 151.73560234 -0.59653393 155.68615723 2.31536865 C158.01265304 5.43713147 158.30784849 7.36477816 158.80157471 11.15390015 C158.03735577 11.15721029 157.27313683 11.16052044 156.48575974 11.16393089 C137.8995274 11.24511455 119.31337834 11.33719175 100.72726059 11.44142723 C91.73919124 11.4915712 82.75113109 11.53801391 73.76300049 11.57577515 C65.92989686 11.6086932 58.09686427 11.64852338 50.26383901 11.6966902 C46.11545822 11.72195706 41.96712457 11.74373779 37.81868744 11.75724411 C33.91498159 11.77006278 30.01143739 11.79211504 26.10782051 11.82128334 C24.67434243 11.83036064 23.24083832 11.83604971 21.80733299 11.83811378 C19.85125493 11.84143506 17.895213 11.85808633 15.93920898 11.87542725 C14.84411892 11.880958 13.74902885 11.88648876 12.62075424 11.89218712 C9.80237753 12.15382562 8.15390999 12.61217607 5.80157471 14.15390015 C1.33569435 22.16701745 -0.35618412 32.55685172 -2.77157593 41.38928223 C-4.06984297 46.13409005 -5.38364701 50.87458262 -6.69842529 55.61483765 C-6.97684769 56.61908279 -7.25527008 57.62332794 -7.54212952 58.65800476 C-11.5284771 72.99184789 -15.69752321 87.27382911 -19.85784912 101.55795288 C-24.16052133 116.38268348 -28.18333157 131.24069489 -32.19842529 146.15390015 C39.41157471 146.15390015 111.02157471 146.15390015 184.80157471 146.15390015 C184.80157471 146.48390015 184.80157471 146.81390015 184.80157471 147.15390015 C155.82961769 147.20059936 126.8576663 147.2358788 97.88567924 147.25752449 C95.20888135 147.25956421 92.53208348 147.26164685 89.85528564 147.26376343 C88.8572858 147.26455036 88.8572858 147.26455036 87.83912434 147.26535319 C77.06670005 147.27405536 66.29429712 147.28982431 55.5218855 147.30820574 C44.4680763 147.32690999 33.41427889 147.33786829 22.36045468 147.34207714 C16.15183042 147.34468678 9.94325459 147.35082975 3.73464584 147.36536026 C-2.10767327 147.37892289 -7.94992395 147.38312543 -13.79225731 147.38011551 C-15.93766718 147.38066626 -18.08307931 147.38465152 -20.22847557 147.3923111 C-23.1560533 147.4022516 -26.08337217 147.39987219 -29.01095581 147.39440918 C-30.28626244 147.4031477 -30.28626244 147.4031477 -31.58733284 147.41206276 C-37.18266413 147.38381385 -41.68935603 146.67254733 -46.57342529 143.71640015 C-49.53205344 139.05087115 -48.86507291 133.52936801 -47.8178978 128.22715759 C-46.53213739 122.7860406 -44.92110453 117.43520432 -43.33514404 112.07577515 C-42.82209798 110.30200454 -42.31039339 108.52784545 -41.79994202 106.75332642 C-40.45079035 102.07597296 -39.08447899 97.40381049 -37.71411133 92.7326355 C-36.0980264 87.21276873 -34.50199466 81.68708207 -32.90297127 76.16225433 C-31.5833608 71.60479995 -30.25994485 67.04853312 -28.92739868 62.49484253 C-26.24867553 53.3278713 -23.63126666 44.14938077 -21.12664795 34.93319702 C-20.63163736 33.12546313 -20.13642709 31.31778391 -19.64100647 29.51016235 C-18.71173878 26.11852511 -17.80231563 22.72240083 -16.90367126 19.32254028 C-16.48554411 17.79247724 -16.06666642 16.26261903 -15.64691162 14.73300171 C-15.47242052 14.04990685 -15.29792942 13.36681198 -15.11815071 12.66301727 C-13.72784296 7.69642073 -11.6941286 4.81482632 -8.19842529 1.15390015 C-5.41070851 -0.23995825 -3.12030765 0.01504729 0 0 Z " fill="#E6BC00" transform="translate(317.19842529296875,339.8460998535156)"/>
<path d="M0 0 C0.65240382 -0.00523668 1.30480765 -0.01047336 1.97698128 -0.01586872 C4.16718048 -0.03089299 6.35714656 -0.03157439 8.5473938 -0.03224182 C10.11606237 -0.03986168 11.68472721 -0.04828888 13.25338745 -0.0574646 C17.5178795 -0.0794334 21.78229985 -0.08821166 26.0468421 -0.09329104 C28.71047793 -0.09693174 31.37409489 -0.10317029 34.03772354 -0.11029243 C43.32839027 -0.134795 52.6190011 -0.14784061 61.90969849 -0.15138245 C70.57295154 -0.15501858 79.23585049 -0.18491732 87.89899528 -0.22678703 C95.33432892 -0.26146417 102.76954506 -0.27693044 110.20495903 -0.27762848 C114.64690777 -0.27842217 119.08849591 -0.28720255 123.53036118 -0.31562614 C127.70837094 -0.34176298 131.88572005 -0.34403697 136.06377411 -0.3279705 C137.59684563 -0.3261525 139.12995476 -0.33287857 140.66294479 -0.34878922 C142.75720055 -0.36919932 144.84913365 -0.35873268 146.94335938 -0.34057617 C148.11474897 -0.3425875 149.28613857 -0.34459883 150.49302483 -0.3466711 C154.53143279 0.46061787 156.01927368 2.14050993 158.59866333 5.27415466 C159.47366333 7.46165466 159.47366333 7.46165466 159.59866333 9.27415466 C159.26866333 9.93415466 158.93866333 10.59415466 158.59866333 11.27415466 C157.83536618 11.27469943 157.07206903 11.2752442 156.28564167 11.27580547 C137.7156869 11.29077066 119.14598109 11.33320676 100.57616138 11.40624523 C91.5959228 11.44090319 82.61583783 11.4662518 73.63552856 11.4697113 C65.80856468 11.47275009 57.98187434 11.49322885 50.15501612 11.53467923 C46.01040161 11.55601894 41.86617608 11.56860501 37.72150612 11.56030846 C33.82003199 11.55277423 29.91934641 11.56856433 26.01801682 11.60221481 C24.58657721 11.61045584 23.15505931 11.61018875 21.72362709 11.60075188 C19.76793677 11.58913565 17.81213314 11.61120227 15.85655212 11.63491821 C14.21529972 11.63906628 14.21529972 11.63906628 12.54089069 11.64329815 C8.63237184 12.48134167 7.12522586 14.2533186 4.59866333 17.27415466 C3.47499614 19.48728796 3.47499614 19.48728796 2.91311646 21.85667419 C2.66259521 22.75312653 2.41207397 23.64957886 2.15396118 24.57319641 C1.89852539 25.54959076 1.6430896 26.52598511 1.37991333 27.53196716 C0.7789637 29.7056393 0.17736578 31.87913227 -0.42477417 34.05247498 C-0.74220581 35.21911682 -1.05963745 36.38575867 -1.38668823 37.5877533 C-2.99584253 43.43410204 -4.69914942 49.25280985 -6.39434814 55.07462311 C-7.41127277 58.57314604 -8.41977613 62.07409327 -9.42868042 65.57493591 C-10.66436392 69.86132881 -11.9005041 74.1475845 -13.1401062 78.43284607 C-17.61998014 93.92137653 -22.04968463 109.41570732 -26.18185425 125.00166321 C-28.07876111 132.15234358 -30.1083941 139.23866629 -32.40133667 146.27415466 C-41.38870751 147.05945891 -41.38870751 147.05945891 -45.46383667 143.89915466 C-48.53695983 139.73556845 -48.6243945 137.46626011 -48.40133667 132.27415466 C-47.74299622 129.09358215 -47.74299622 129.09358215 -46.80343628 125.80296326 C-46.45091293 124.55127853 -46.09838959 123.29959381 -45.73518372 122.00997925 C-45.34150161 120.64747286 -44.94766237 119.28501187 -44.55368042 117.92259216 C-44.14515748 116.48439211 -43.73746707 115.04595536 -43.33055115 113.6072998 C-42.23709029 109.74997418 -41.1325194 105.89591589 -40.02545166 102.04247665 C-38.87813078 98.04328013 -37.73964267 94.04157176 -36.60055542 90.0400238 C-35.21551193 85.17612729 -33.82958749 80.31249135 -32.43914795 75.45013428 C-29.5409246 65.31072791 -26.68845355 55.1597631 -23.87399292 44.99681091 C-22.86646217 41.37410619 -21.85815114 37.75161955 -20.84960938 34.12919617 C-20.22076116 31.86284932 -19.59529602 29.59556086 -18.97332764 27.32731628 C-18.11529994 24.20133027 -17.24422725 21.07926027 -16.37008667 17.95774841 C-16.00410118 16.60327354 -16.00410118 16.60327354 -15.63072205 15.22143555 C-13.10443148 6.29962536 -10.22674114 0.0406271 0 0 Z " fill="#E6BD00" transform="translate(182.40133666992188,180.72584533691406)"/>
<path d="M0 0 C2.82482708 1.29012666 4.8825812 2.67713134 7.125 4.8125 C15.97021043 12.52612701 26.7685332 15.55476907 38.37109375 15.24609375 C47.98188303 14.34642105 55.81571814 10.97823444 64 6 C64.495 7.485 64.495 7.485 65 9 C63.948125 9.7115625 63.948125 9.7115625 62.875 10.4375 C54.57035779 17.83946371 50.65108795 27.85266379 49.65234375 38.81640625 C49.3994717 49.71189314 51.30587818 57.90097378 57.109375 67.08984375 C58 69 58 69 57 72 C56.57589844 71.62488281 56.15179688 71.24976563 55.71484375 70.86328125 C53.82931107 69.21810219 51.91829969 67.6068134 50 66 C49.48308594 65.54753906 48.96617188 65.09507812 48.43359375 64.62890625 C38.99882854 57.03853123 26.62105236 55.89880893 14.95361328 56.76367188 C7.68122258 57.64341121 1.88077567 60.88345703 -4 65 C-4.99 65 -5.98 65 -7 65 C-5.70987334 62.17517292 -4.32286866 60.1174188 -2.1875 57.875 C5.99658619 48.51032436 8.52999737 37.58484998 8.31640625 25.41015625 C7.46882671 16.27513234 4.2509984 8.4389144 -1 1 C-0.67 0.67 -0.34 0.34 0 0 Z " fill="#F7C700" transform="translate(27,159)"/>
<path d="M0 0 C3.40621138 1.52964122 6.07522323 3.56825642 9 5.875 C20.04573911 13.87915877 31.66281365 15.52424987 45 14 C50.39369031 12.78066517 54.96911476 10.84372346 59.5 7.6875 C60.7375 6.8521875 60.7375 6.8521875 62 6 C62.99 6.33 63.98 6.66 65 7 C64.13375 7.94875 63.2675 8.8975 62.375 9.875 C53.02621748 20.88136807 49.33602849 31.84726102 49.64453125 46.2734375 C50.431804 54.52682431 53.21152363 61.33033648 58 68 C58 68.99 58 69.98 58 71 C55.17593366 69.71300648 53.15830367 68.34014601 50.9375 66.1875 C42.39143319 58.71882195 30.64465981 55.41754539 19.40625 55.75390625 C9.89387742 56.72676254 2.11033725 60.06674368 -6 65 C-6.33 64.01 -6.66 63.02 -7 62 C-6.29875 61.525625 -5.5975 61.05125 -4.875 60.5625 C3.45073091 53.14173984 7.40283192 42.84150218 8.23828125 31.87109375 C8.47645197 20.85256418 6.44633862 11.9788288 0 3 C0 2.01 0 1.02 0 0 Z " fill="#F8C700" transform="translate(164,26)"/>
</svg>
